<svg xmlns="http://www.w3.org/2000/svg" viewBox="0 0 24 24" fill="none" role="img" aria-hidden="true">
  <path d="M12 21a2.25 2.25 0 0 0 2.2-1.8H9.8A2.25 2.25 0 0 0 12 21Z" fill="white" opacity="0.95" />
  <path
    d="M18 16.8H6.2c1.1-1.3 1.6-2.7 1.6-4.7 0-3.1 1.9-5.4 4.7-5.9V5.2a1 1 0 1 1 2 0v1c2.8.5 4.7 2.8 4.7 5.9 0 2 .5 3.4 1.8 4.7Z"
    stroke="white"
    stroke-width="1.8"
    stroke-linejoin="round"
  />
  <path d="M9.4 9.2c.6-.8 1.6-1.3 2.6-1.3 1 0 2 .5 2.6 1.3" stroke="white" stroke-width="1.8" stroke-linecap="round" opacity="0.8" />
</svg>
