<svg xmlns="http://www.w3.org/2000/svg" viewBox="0 0 24 24" fill="none" role="img" aria-hidden="true">
  <path
    d="M16.9 18.6c1.9 0 3.1-.7 3.1-2 0-1.6-1.8-2.6-4.1-3"
    stroke="white"
    stroke-width="1.8"
    stroke-linecap="round"
    opacity="0.85"
  />
  <path
    d="M7.1 18.6c-1.9 0-3.1-.7-3.1-2 0-2.2 3.6-3.6 8-3.6s8 1.4 8 3.6c0 1.3-1.2 2-3.1 2H7.1Z"
    stroke="white"
    stroke-width="1.8"
    stroke-linejoin="round"
  />
  <path d="M12 11.4a3.55 3.55 0 1 0 0-7.1 3.55 3.55 0 0 0 0 7.1Z" stroke="white" stroke-width="1.8" />
  <path d="M18 9.2a2.9 2.9 0 1 0 0-5.8" stroke="white" stroke-width="1.8" stroke-linecap="round" opacity="0.75" />
</svg>
