<?xml version="1.0" encoding="UTF-8"?>
<svg version="1.1" xmlns="http://www.w3.org/2000/svg" width="532" height="469">
<path d="M0 0 C5.23277843 0.49391021 10.01012116 1.76906198 15 3.375 C16.00933594 3.68824219 16.00933594 3.68824219 17.0390625 4.0078125 C21.48842686 5.41649156 25.70832709 7.15855535 30 9 C31.76632093 9.51571414 33.53720817 10.0160686 35.3125 10.5 C43.55074184 13.16989679 50.61647497 17.96434666 57.84570312 22.62841797 C59.32577085 23.5707367 60.82031924 24.49057294 62.32617188 25.39111328 C63.05900391 25.83052246 63.79183594 26.26993164 64.546875 26.72265625 C65.21041992 27.11332275 65.87396484 27.50398926 66.55761719 27.90649414 C67.27159668 28.44777954 67.27159668 28.44777954 68 29 C68 29.66 68 30.32 68 31 C68.825 31.226875 69.65 31.45375 70.5 31.6875 C74.66509486 33.24941057 78.5000943 35.22850107 82 38 C82 38.66 82 39.32 82 40 C82.55598877 40.10328613 83.11197754 40.20657227 83.68481445 40.31298828 C86.48519937 41.14397881 88.57199697 42.4324107 91.04296875 43.9921875 C92.02612061 44.60956787 93.00927246 45.22694824 94.0222168 45.86303711 C95.06676025 46.52698486 96.11130371 47.19093262 97.1875 47.875 C98.26233643 48.55248291 99.33717285 49.22996582 100.44458008 49.92797852 C107.4128153 54.32943408 114.34595603 58.78385475 121.25195312 63.28222656 C126.39020935 66.62485561 131.59146071 69.84597229 136.82421875 73.0390625 C140.83238638 75.51397043 144.78891691 78.06411488 148.73950195 80.62963867 C151.72344754 82.56092039 154.7242338 84.45049765 157.7734375 86.27734375 C158.37800781 86.64085937 158.98257813 87.004375 159.60546875 87.37890625 C161.28284376 88.382369 162.96549667 89.37699386 164.6484375 90.37109375 C165.42445313 90.90863281 166.20046875 91.44617188 167 92 C167 92.66 167 93.32 167 94 C172.09375911 92.57812246 175.9301313 90.30372454 180.25 87.375 C186.74539877 83 186.74539877 83 189 83 C189 82.34 189 81.68 189 81 C191.45020091 79.3284519 193.89748696 77.7738953 196.4375 76.25 C197.91209065 75.34868994 199.38605323 74.44635149 200.859375 73.54296875 C201.93155273 72.88820557 201.93155273 72.88820557 203.02539062 72.22021484 C205.45028867 70.72174298 207.8251388 69.15749557 210.1875 67.5625 C218.44458215 62 218.44458215 62 221 62 C221 61.34 221 60.68 221 60 C222.81835937 58.73608398 222.81835937 58.73608398 225.34375 57.30859375 C230.87650036 54.09706594 236.18994184 50.62737656 241.5 47.0625 C242.37269531 46.48048828 243.24539063 45.89847656 244.14453125 45.29882812 C248.5433701 42.35649369 252.90221161 39.37049532 257.21875 36.30859375 C259.96977363 34.37159899 262.70489955 32.5266035 265.640625 30.8828125 C269.48214016 28.72977726 273.10300603 26.33799994 276.75 23.875 C277.40871094 23.43285156 278.06742187 22.99070313 278.74609375 22.53515625 C279.96264104 21.71836689 281.17854764 20.90062174 282.39355469 20.08154297 C286.97065463 17 286.97065463 17 291 17 C291.84783483 19.93900833 292.11598867 22.52227235 292.08901978 25.57669067 C292.08342796 26.49321128 292.07783615 27.40973188 292.07207489 28.35402584 C292.0606974 29.35497563 292.04931992 30.35592543 292.03759766 31.38720703 C292.02556179 32.98206735 292.02556179 32.98206735 292.01328278 34.60914707 C291.98518641 38.15876303 291.94965503 41.70826439 291.9140625 45.2578125 C291.892563 47.76601315 291.87148355 50.27421742 291.85079956 52.78242493 C291.79975598 58.8139208 291.74377681 64.84535164 291.68518245 70.87677735 C291.63817253 75.72342893 291.59317851 80.57009531 291.54956055 85.41677856 C291.37957482 104.27799361 291.19486981 123.13902515 291 142 C290.98837326 143.13216194 290.97674652 144.26432388 290.96476746 145.43079376 C290.83221214 158.31890556 290.68979829 171.20683944 290.52873993 184.09462738 C290.49998774 186.43849961 290.47285238 188.78238583 290.44610596 191.12628174 C290.39720478 195.37464686 290.33997866 199.62285309 290.28125 203.87109375 C290.26770477 205.09532547 290.25415955 206.31955719 290.24020386 207.58088684 C290.22345612 208.67624252 290.20670837 209.77159821 290.18945312 210.90014648 C290.17692505 211.84534653 290.16439697 212.79054657 290.15148926 213.76438904 C290 216 290 216 289 218 C288.34 218 287.68 218 287 218 C287 218.66 287 219.32 287 220 C286.34 220 285.68 220 285 220 C284.7525 220.56203125 284.505 221.1240625 284.25 221.703125 C282.78725133 224.39092569 281.03195127 226.46405482 279 228.75 C278.29875 229.54921875 277.5975 230.3484375 276.875 231.171875 C275 233 275 233 273 233 C272.7525 233.556875 272.505 234.11375 272.25 234.6875 C269.63675682 239.52199988 265.85348341 243.14651659 262 247 C261.20629876 248.0818436 260.414653 249.16519801 259.625 250.25 C256.39350488 253.63537585 254.53480965 253.55395315 250 254 C249.96928215 250.27085312 249.95266832 246.54173987 249.9375 242.8125 C249.92912109 241.81541016 249.92074219 240.81832031 249.91210938 239.79101562 C249.88752977 231.55684825 250.15910146 223.35215594 250.47265625 215.125 C250.91650494 203.20204809 251.14932826 191.28563405 251.28125 179.35546875 C251.29080278 178.49866327 251.30035557 177.6418578 251.31019783 176.75908852 C251.37810367 170.56860395 251.4396725 164.37806238 251.5 158.1875 C251.56883629 151.1392763 251.64037883 144.0910935 251.71875 137.04296875 C251.72813599 136.19280056 251.73752197 135.34263237 251.74719238 134.46670151 C251.93557905 117.96949311 252.3946162 101.48690531 253 85 C252.401875 85.495 251.80375 85.99 251.1875 86.5 C249 88 249 88 246 88 C246 88.66 246 89.32 246 90 C244.6105957 91.08154297 244.6105957 91.08154297 242.67578125 92.2421875 C241.62680664 92.88220703 241.62680664 92.88220703 240.55664062 93.53515625 C239.81607422 93.97730469 239.07550781 94.41945313 238.3125 94.875 C232.55522117 98.32870365 232.55522117 98.32870365 227.16796875 102.3203125 C225 104 225 104 222 104 C222 104.66 222 105.32 222 106 C221.01 106 220.02 106 219 106 C219 106.66 219 107.32 219 108 C217.55395508 109.09399414 217.55395508 109.09399414 215.51953125 110.28515625 C214.40106812 110.9507959 214.40106812 110.9507959 213.26000977 111.62988281 C212.45233154 112.10264648 211.64465332 112.57541016 210.8125 113.0625 C204.00595188 117.12623061 197.44624187 121.36172764 190.96875 125.93359375 C187.17528884 128.57404237 183.2917721 131.04821343 179.3671875 133.48828125 C177.39137337 134.75006354 175.55203015 136.08469603 173.6875 137.5 C171 139 171 139 168.125 139.0625 C164.03850243 137.67309083 160.35765303 135.7355498 157 133 C157 132.34 157 131.68 157 131 C156.14088013 130.8302063 156.14088013 130.8302063 155.2644043 130.65698242 C152.75750438 129.92964359 150.96609201 128.89389276 148.76953125 127.48828125 C147.96580078 126.97716797 147.16207031 126.46605469 146.33398438 125.93945312 C145.50189453 125.40255859 144.66980469 124.86566406 143.8125 124.3125 C142.99974609 123.79494141 142.18699219 123.27738281 141.34960938 122.74414062 C137.2798674 120.1442975 133.24327888 117.50125967 129.234375 114.80859375 C125.2134465 112.11487631 121.08190472 109.68107847 116.87109375 107.296875 C116.25363281 106.86890625 115.63617188 106.4409375 115 106 C115 105.34 115 104.68 115 104 C114.15566406 103.76539063 113.31132812 103.53078125 112.44140625 103.2890625 C108.46938664 101.80124585 105.39428597 99.78934966 101.9375 97.375 C95.85732833 93.20643491 89.67267497 89.32643248 83.31640625 85.59375 C82.55199219 85.0678125 81.78757812 84.541875 81 84 C81 83.34 81 82.68 81 82 C80.27039063 81.72542969 79.54078125 81.45085937 78.7890625 81.16796875 C67.01798888 76.23862559 56.26410698 67.86859267 45.69750977 60.76708984 C41.60574155 58.03093726 37.4624628 55.4214888 33.25 52.875 C24.927 47.75 24.927 47.75 21 45.125 C19.7315625 44.29355469 19.7315625 44.29355469 18.4375 43.4453125 C14.82940201 39.8256501 13.08220392 35.62468449 11 31 C10.53529297 29.98615234 10.07058594 28.97230469 9.59179688 27.92773438 C8.12242861 24.69037792 6.68278527 21.44119701 5.25 18.1875 C4.50943359 16.52944336 4.50943359 16.52944336 3.75390625 14.83789062 C3.28339844 13.77119141 2.81289062 12.70449219 2.328125 11.60546875 C1.9043457 10.64793701 1.48056641 9.69040527 1.04394531 8.70385742 C0.04441389 6.11503362 -0.63706798 3.74960458 -1 1 C-0.67 0.67 -0.34 0.34 0 0 Z " fill="#070707" transform="translate(90,175)"/>
<path d="M0 0 C6.3825743 3.06605396 12.8996264 5.70575548 19.46875 8.34375 C26.89074738 11.32423714 34.25560353 14.35503094 41.5 17.74804688 C44.11913036 18.91049318 46.76624276 19.8929287 49.46875 20.84375 C54.20993431 22.51631573 58.72896732 24.50524118 63.28515625 26.625 C65.82217221 27.77718192 68.37477485 28.82746906 70.96875 29.84375 C74.50861544 31.23061671 77.95922514 32.7400278 81.40625 34.34375 C85.93575543 36.43331087 90.51681378 38.15613611 95.21875 39.8125 C98.97960179 41.22281942 102.57974616 42.92955503 106.21875 44.625 C108.93648843 45.82945226 111.66561532 46.8562821 114.46875 47.84375 C119.21376122 49.51766576 123.73608158 51.5095545 128.296875 53.62890625 C131.57437295 55.11911365 134.90424875 56.43626847 138.25390625 57.75390625 C145.09135492 60.49872377 151.83603722 63.47846849 158.58984375 66.421875 C164.75646905 69.09655585 170.92373553 71.6039868 177.2578125 73.8515625 C185.1499346 76.7400337 192.79630314 80.20286176 200.42578125 83.71484375 C202.73083242 84.73813068 205.04003069 85.66086619 207.40625 86.53125 C213.0307655 88.60343992 213.0307655 88.60343992 214.96875 89.84375 C215.29875 90.83375 215.62875 91.82375 215.96875 92.84375 C212.83086202 95.45362798 209.79180016 96.82258707 205.96875 98.21875 C201.5360903 99.87169029 197.14243744 101.57263303 192.78125 103.40625 C191.80414063 103.81488281 190.82703125 104.22351563 189.8203125 104.64453125 C187.95838834 105.42755963 186.09888313 106.21637206 184.2421875 107.01171875 C183.38882812 107.36878906 182.53546875 107.72585937 181.65625 108.09375 C180.91761719 108.40828125 180.17898438 108.7228125 179.41796875 109.046875 C172.39787794 111.33092369 168.21275172 110.67381867 161.71875 107.71875 C161.03167969 107.42226562 160.34460938 107.12578125 159.63671875 106.8203125 C156.57328216 105.48887413 153.53567612 104.10301226 150.49804688 102.71386719 C142.70049981 99.14985141 134.84188221 95.73618995 126.96875 92.34375 C124.38488539 91.23039317 121.80145561 90.11604298 119.21875 89 C118.59689819 88.7313916 117.97504639 88.4627832 117.33435059 88.18603516 C112.65376231 86.15727418 108.01018252 84.05556921 103.38476562 81.90429688 C99.88616022 80.36853072 96.29365138 79.13516051 92.69262695 77.86303711 C90.02373658 76.86432623 87.4686149 75.73955003 84.88671875 74.53515625 C77.89530837 71.32384143 70.78498951 68.42039853 63.66601562 65.50585938 C58.61333166 63.42077866 53.67731665 61.25161553 48.81665039 58.75268555 C45.10262086 56.92584819 41.21387508 55.51795339 37.34960938 54.04492188 C33.64008751 52.60169201 30.36478266 50.90011393 26.96875 48.84375 C25.04769835 48.05256935 23.10817538 47.30536336 21.15625 46.59375 C15.15626566 44.34290069 9.29468292 41.85462012 3.43823242 39.25488281 C1.61712823 38.44652267 -0.20696344 37.64490239 -2.03125 36.84375 C-2.9078125 36.42480469 -3.784375 36.00585938 -4.6875 35.57421875 C-10.02534612 33.91059004 -14.95854827 36.94228606 -19.84375 39.03125 C-25.61229287 41.45895963 -31.40217662 43.7604563 -37.28125 45.90625 C-43.28156767 48.10585494 -49.02677327 50.65520703 -54.80078125 53.40234375 C-59.31886294 55.41827137 -63.95412526 57.00499358 -68.64453125 58.5703125 C-71.18300606 59.52480245 -73.44296821 60.51651995 -75.83984375 61.74609375 C-80.37039596 64.06917551 -85.04292886 65.92797335 -89.78125 67.78125 C-91.5705602 68.4889574 -93.35962439 69.19728711 -95.1484375 69.90625 C-95.99889648 70.24269531 -96.84935547 70.57914062 -97.72558594 70.92578125 C-101.38579204 72.38304247 -105.01660715 73.90739724 -108.6484375 75.43359375 C-113.43277555 77.42798871 -118.23258735 79.3841201 -123.03125 81.34375 C-132.21349403 85.09599563 -141.38447383 88.87083925 -150.515625 92.74609375 C-154.59398044 94.47578789 -158.67745974 96.19274068 -162.76611328 97.89794922 C-164.20328541 98.49803597 -165.63930456 99.10089762 -167.07373047 99.70751953 C-168.84569451 100.45373005 -170.62572587 101.18070158 -172.40625 101.90625 C-173.38335937 102.30972656 -174.36046875 102.71320313 -175.3671875 103.12890625 C-184.4818534 105.57463038 -198.60644487 97.74489018 -207.02734375 94.1015625 C-211.45803732 92.2463176 -215.98360686 90.65537237 -220.51171875 89.0546875 C-221.34316406 88.65507812 -222.17460937 88.25546875 -223.03125 87.84375 C-223.36125 86.85375 -223.69125 85.86375 -224.03125 84.84375 C-219.9206131 81.90669373 -216.24392498 80.01324778 -211.40625 78.40625 C-205.87645767 76.50701242 -200.49339428 74.42523394 -195.11328125 72.140625 C-191.85224678 70.76842798 -188.57068349 69.45885102 -185.28125 68.15625 C-178.66286627 65.53047346 -172.09688467 62.78588543 -165.53125 60.03125 C-156.27399683 56.15095543 -146.96801134 52.41828544 -137.60546875 48.79956055 C-132.70329626 46.90324509 -127.85135925 44.93971229 -123.03125 42.84375 C-118.30529035 40.89728145 -113.54516213 39.03804186 -108.7734375 37.20703125 C-98.99371899 33.47476579 -98.99371899 33.47476579 -89.40625 29.28125 C-83.89815548 26.70012148 -78.22716999 24.63215944 -72.51171875 22.56640625 C-67.53250079 20.70811941 -62.6804837 18.55788887 -57.80249023 16.45141602 C-52.19931551 14.04769232 -46.53627256 11.79338595 -40.87182617 9.53881836 C-38.96517968 8.77982874 -37.05966374 8.01805493 -35.15429688 7.25585938 C-32.66103847 6.25925336 -30.1651652 5.27024086 -27.66748047 4.28466797 C-25.24400422 3.32432442 -22.82627003 2.3493617 -20.41455078 1.35986328 C-19.27872559 0.90208496 -18.14290039 0.44430664 -16.97265625 -0.02734375 C-15.97049072 -0.43782959 -14.9683252 -0.84831543 -13.93579102 -1.27124023 C-8.63892929 -2.88518692 -4.90424916 -2.45021928 0 0 Z " fill="#070707" transform="translate(266.03125,43.15625)"/>
<path d="M0 0 C1.78517541 0.64330645 3.57737429 1.26735187 5.375 1.875 C10.12323128 3.6076415 14.67085617 5.64778526 19.25 7.78125 C22.80376438 9.35621376 26.43676049 10.62593047 30.1015625 11.9152832 C32.84457024 12.94183167 35.47087552 14.0881164 38.125 15.32421875 C43.86231329 17.9584828 49.66542329 20.40295307 55.5 22.8125 C56.52939697 23.24119385 57.55879395 23.6698877 58.61938477 24.11157227 C63.65157737 26.20679922 68.69010349 28.28315181 73.74609375 30.3203125 C74.62523437 30.67891357 75.504375 31.03751465 76.41015625 31.40698242 C78.06143173 32.08028553 79.71628018 32.74490912 81.375 33.3996582 C83.2859945 34.183899 85.14946324 35.08215072 87 36 C87.33 36.99 87.66 37.98 88 39 C86.92363281 39.43570313 85.84726562 39.87140625 84.73828125 40.3203125 C77.84424593 43.12646724 70.98547848 45.95147395 64.25 49.125 C59.00197243 51.59235625 53.67763155 53.68338817 48.25 55.71875 C44.93278897 57.02649666 41.72521946 58.48042545 38.5 60 C32.1138069 63.00120373 25.60866399 65.5356181 19 68 C11.68037212 70.74701329 4.52675231 73.57002396 -2.46484375 77.08203125 C-7.35027813 78.85102521 -10.74364732 78.28085741 -15.37109375 76.1640625 C-17.06499925 75.3279692 -18.75352871 74.48092555 -20.4375 73.625 C-29.24672078 69.27954608 -38.14820055 65.25343758 -47.18334961 61.40087891 C-51.91135475 59.37633473 -56.54841614 57.26645123 -61.12963867 54.92919922 C-64.1968623 53.40539643 -67.34876641 52.08867289 -70.5 50.75 C-78.83631439 47.16014734 -86.91878237 43.12597379 -95 39 C-96.33248354 38.33163644 -97.66532123 37.66396898 -99 37 C-99 36.34 -99 35.68 -99 35 C-92.99088078 32.49370069 -86.98053896 29.99048003 -80.96484375 27.5 C-79.97033203 27.0875 -78.97582031 26.675 -77.95117188 26.25 C-75.93872395 25.41528408 -73.92570028 24.58195492 -71.91210938 23.75 C-66.18613594 21.37191888 -60.52235463 18.8929068 -54.88696289 16.30810547 C-48.14462377 13.25309887 -41.32718694 10.36550028 -34.51245117 7.47631836 C-33.89779495 7.21572128 -33.28313873 6.95512421 -32.64985657 6.68663025 C-30.84714152 5.92258765 -29.04442043 5.1585593 -27.24169922 4.39453125 C-24.52808234 3.22717324 -21.84034691 2.02267543 -19.16015625 0.78125 C-11.7111559 -2.60277089 -7.40415757 -3.84909274 0 0 Z " fill="#060606" transform="translate(264,105)"/>
<path d="M0 0 C3.76289342 0.6089768 6.79922361 1.69951154 10.21875 3.37109375 C11.72514038 4.10150879 11.72514038 4.10150879 13.26196289 4.84667969 C14.33051514 5.37165039 15.39906738 5.89662109 16.5 6.4375 C18.75892723 7.53554177 21.01804487 8.63319188 23.27734375 9.73046875 C24.40769043 10.28138184 25.53803711 10.83229492 26.70263672 11.39990234 C31.47414781 13.71535353 36.26830679 15.98201053 41.0625 18.25 C49.76843846 22.38329585 58.39988342 26.65149685 67 31 C75.11854895 35.10457888 83.27165292 39.08852835 91.51416016 42.93603516 C110.24956641 51.71332787 110.24956641 51.71332787 116.01171875 55.2265625 C120.45467024 56.9548619 124.22109814 56.29506435 128.578125 54.64453125 C129.80860972 54.04711359 131.03246674 53.43588853 132.25 52.8125 C133.5714102 52.16624859 134.89302631 51.52041804 136.21484375 50.875 C136.8579248 50.5553125 137.50100586 50.235625 138.16357422 49.90625 C145.62007846 46.22657122 153.2613354 43.02864172 161 40 C171.63620809 35.88027372 171.63620809 35.88027372 181.9296875 30.98828125 C184.64381998 29.69266706 187.43179717 28.67433084 190.25 27.625 C194.69336741 25.9574545 198.90702362 24.11222288 203.125 21.9375 C207.75337708 19.55336884 212.37262861 17.69782837 217.28515625 15.9921875 C223.02471555 13.89456439 228.50848693 11.17512085 234.03125 8.5703125 C235.0109375 8.11398438 235.990625 7.65765625 237 7.1875 C238.3303125 6.55908203 238.3303125 6.55908203 239.6875 5.91796875 C242 5 242 5 245 5 C245.94071799 10.99707717 246.80125294 17.09141462 245 23 C241.70953885 27.33902665 236.31020061 29.41585432 231.52099609 31.71923828 C226.86981091 34.08221692 222.5270101 36.95810657 218.125 39.75 C212.2012437 43.43565692 206.24649914 47.06540417 200.25927734 50.64697266 C192.65484956 55.20108318 185.13734462 59.88579932 177.6875 64.6875 C176.8046936 65.25549316 176.8046936 65.25549316 175.90405273 65.83496094 C173.41125732 67.44011931 170.92269813 69.05082539 168.4453125 70.6796875 C163.32415254 74 163.32415254 74 160 74 C160 74.66 160 75.32 160 76 C159.01 76 158.02 76 157 76 C157 76.66 157 77.32 157 78 C156.14019531 78.4846875 155.28039062 78.969375 154.39453125 79.46875 C140.64135959 86.82699942 140.64135959 86.82699942 127.9453125 95.73046875 C125.41063758 97.38462407 123.99313661 97.26076674 121 97 C118.90356445 95.99023438 118.90356445 95.99023438 116.86328125 94.59375 C116.12142578 94.09746094 115.37957031 93.60117188 114.61523438 93.08984375 C113.85533203 92.56519531 113.09542969 92.04054688 112.3125 91.5 C110.79037064 90.46490117 109.26574871 89.43345519 107.73828125 88.40625 C107.06837158 87.94541016 106.39846191 87.48457031 105.70825195 87.00976562 C104.04377927 85.83038073 104.04377927 85.83038073 102 86 C102 85.34 102 84.68 102 84 C100.9790625 83.63261719 100.9790625 83.63261719 99.9375 83.2578125 C96.43231755 81.75692321 93.24376114 79.86070217 90 77.875 C89.34499512 77.47829102 88.68999023 77.08158203 88.01513672 76.67285156 C83.7032542 74.05637253 79.413831 71.40402954 75.125 68.75 C70.16079692 65.68188932 65.14018699 62.76268448 60 60 C60 59.34 60 58.68 60 58 C58.9790625 57.9071875 58.9790625 57.9071875 57.9375 57.8125 C54.55247971 56.87621779 52.54825939 55.3708048 49.78125 53.27734375 C47.33868163 51.52576512 44.72104618 50.26097262 42 49 C42 48.34 42 47.68 42 47 C41.32066406 46.92394531 40.64132813 46.84789062 39.94140625 46.76953125 C36.13202903 45.77292127 33.19183615 43.82156448 29.9375 41.6875 C28.52985055 40.78457742 27.12093123 39.88363238 25.7109375 38.984375 C24.9590918 38.50419922 24.20724609 38.02402344 23.43261719 37.52929688 C18.14426463 34.2047043 12.75803966 31.03936868 7.38842773 27.84838867 C6.57059814 27.36088135 5.75276855 26.87337402 4.91015625 26.37109375 C3.81392944 25.7203186 3.81392944 25.7203186 2.69555664 25.05639648 C1 24 1 24 0 23 C-0.08713831 21.29227642 -0.10700007 19.58101351 -0.09765625 17.87109375 C-0.09443359 16.83662109 -0.09121094 15.80214844 -0.08789062 14.73632812 C-0.07951172 13.64771484 -0.07113281 12.55910156 -0.0625 11.4375 C-0.05798828 10.34501953 -0.05347656 9.25253906 -0.04882812 8.12695312 C-0.03699826 5.41791505 -0.02051543 2.70898401 0 0 Z " fill="#0A0A0A" transform="translate(136,153)"/>
<path d="M0 0 C2.97 0.495 2.97 0.495 6 1 C6 1.66 6 2.32 6 3 C6.72727295 3.12366943 7.4545459 3.24733887 8.20385742 3.37475586 C10.94246766 3.98713522 13.19141578 4.83970615 15.73828125 6.00390625 C16.63321289 6.4110083 17.52814453 6.81811035 18.45019531 7.23754883 C19.39475586 7.67478271 20.33931641 8.1120166 21.3125 8.5625 C22.77768066 9.23478638 22.77768066 9.23478638 24.27246094 9.9206543 C30.14276711 12.63035917 35.97107036 15.41314459 41.75 18.3125 C42.39485352 18.63541016 43.03970703 18.95832031 43.70410156 19.29101562 C46.48399541 20.6933015 49.23430441 22.12999716 51.95703125 23.640625 C52.81683594 24.10984375 53.67664063 24.5790625 54.5625 25.0625 C55.26503906 25.46597656 55.96757812 25.86945313 56.69140625 26.28515625 C61.9396132 27.91023556 66.8395953 25.88125571 71.5625 23.5625 C73.23119141 22.76199219 73.23119141 22.76199219 74.93359375 21.9453125 C75.56378418 21.64141602 76.19397461 21.33751953 76.84326172 21.02441406 C81.24247143 18.93486415 85.688262 16.94576287 90.125 14.9375 C91.94019011 14.11347054 93.75529567 13.28925481 95.5703125 12.46484375 C96.45493164 12.0663623 97.33955078 11.66788086 98.25097656 11.25732422 C100.18426256 10.37309483 102.10733843 9.46636663 104.02246094 8.54345703 C105.49247559 7.84325439 105.49247559 7.84325439 106.9921875 7.12890625 C107.88019043 6.69779541 108.76819336 6.26668457 109.68310547 5.82250977 C112 5 112 5 115 6 C114.4681583 10.64707581 112.37830526 13.90099818 109.8125 17.6875 C108.99333281 18.92221045 108.17563257 20.15789535 107.359375 21.39453125 C106.95783203 22.00119629 106.55628906 22.60786133 106.14257812 23.23291016 C104.02370023 26.50992686 102.10870112 29.90708805 100.19140625 33.3046875 C99.79824219 33.86414063 99.40507812 34.42359375 99 35 C98.34 35 97.68 35 97 35 C96.60167969 36.08087891 96.60167969 36.08087891 96.1953125 37.18359375 C94.98295286 40.04016663 93.56229719 42.46092317 91.875 45.0625 C91.25109375 46.02671875 90.6271875 46.9909375 89.984375 47.984375 C87.37836481 51.9446897 84.74579153 55.88671611 82.10546875 59.82421875 C79.84463069 63.23435112 77.63745118 66.67546908 75.4375 70.125 C72.2557918 75.11305784 68.93514943 79.9785979 65.5078125 84.80078125 C63.47087856 87.77174966 61.71939719 90.83630916 60 94 C57.16304983 93.67384304 56.20599119 93.25811548 54.39453125 90.98828125 C53.87246094 90.10527344 53.35039062 89.22226562 52.8125 88.3125 C52.20664063 87.3121875 51.60078125 86.311875 50.9765625 85.28125 C49.99816406 83.65703125 49.99816406 83.65703125 49 82 C47.56922162 79.76607094 46.132426 77.53718725 44.6875 75.3125 C41.35979212 70.15952753 38.10695082 64.96343717 34.875 59.75 C32.21071348 55.45630257 29.51633725 51.22794339 26.5625 47.125 C22.75128164 41.80911624 19.43649013 36.20737326 16.05810547 30.61181641 C13.06933139 25.68421064 9.92548224 20.9323335 6.57421875 16.2421875 C4.8175957 13.74019834 3.13575391 11.20776934 1.5 8.625 C0.9946875 7.83351563 0.489375 7.04203125 -0.03125 6.2265625 C-1.15551503 3.64256625 -0.99198269 2.58624059 0 0 Z " fill="#0A0A0A" transform="translate(197,323)"/>
<path d="M0 0 C3.95238334 0.70604647 6.51194602 1.71117922 9.875 3.9375 C10.82503906 4.56140625 11.77507812 5.1853125 12.75390625 5.828125 C14.36072266 6.90320313 14.36072266 6.90320313 16 8 C17.27968919 8.84934828 18.55964907 9.69828881 19.83984375 10.546875 C22.9370659 12.603476 26.02876954 14.66812597 29.11645508 16.73901367 C31.1295703 18.16467188 31.1295703 18.16467188 34.1340332 19.39086914 C38.0134586 22.92263669 37.88443176 25.44550744 38.2069397 30.53924561 C38.24950897 31.70707581 38.29207825 32.87490601 38.3359375 34.078125 C38.4014682 35.3083136 38.4669989 36.5385022 38.53451538 37.80596924 C38.73288484 41.87024601 38.87951333 45.93283009 39 50 C39.02073074 50.69402924 39.04146149 51.38805847 39.06282043 52.1031189 C39.35475133 62.23993779 39.4962977 72.37746716 39.60089111 82.5177002 C39.64189081 86.31396099 39.69252824 90.11009436 39.7421875 93.90625 C39.83718896 101.27074381 39.92211443 108.63530307 40 116 C38.02 116.495 38.02 116.495 36 117 C36 116.34 36 115.68 36 115 C35.360625 114.731875 34.72125 114.46375 34.0625 114.1875 C32 113 32 113 31 110 C30.34 110 29.68 110 29 110 C29 109.34 29 108.68 29 108 C28.34 108 27.68 108 27 108 C25.2734375 106.3203125 25.2734375 106.3203125 23.375 104.125 C22.74335938 103.40570313 22.11171875 102.68640625 21.4609375 101.9453125 C20 100 20 100 20 98 C19.41089844 97.74863281 18.82179687 97.49726563 18.21484375 97.23828125 C15.72355798 95.84544599 14.37699586 94.3791428 12.5625 92.1875 C10.48094675 89.71565552 8.40344156 87.35288472 6.0625 85.125 C4 83 4 83 4 81 C3.34 81 2.68 81 2 81 C0.80235172 77.11534449 0.64916141 73.1686392 0.44140625 69.13671875 C0.39915421 68.31999191 0.35690216 67.50326508 0.31336975 66.66178894 C-0.2740281 53.72213954 -0.10466453 40.76178334 -0.0625 27.8125 C-0.05689202 25.10481917 -0.05284217 22.39713673 -0.04882812 19.68945312 C-0.03792972 13.12628188 -0.02129371 6.56314533 0 0 Z " fill="#090909" transform="translate(126,273)"/>
<path d="M0 0 C2.49115736 11.58169651 3.17706356 23.61891668 4.30426025 35.39431763 C4.49992488 37.43671584 4.69678227 39.4789956 4.89404297 41.52124023 C4.95832489 42.18703598 5.02260681 42.85283173 5.08883667 43.5388031 C5.27796405 45.4972239 5.46710689 47.45564322 5.65625 49.4140625 C5.86766434 51.61949849 6.07656304 53.82517947 6.28125 56.03125 C6.51100224 58.50108663 6.75336792 60.96930267 7 63.4375 C7.185625 65.38462891 7.185625 65.38462891 7.375 67.37109375 C8.09253108 71.53725856 9.42478126 75.09886512 11 79 C12.08552338 81.90842681 13.136815 84.82883627 14.1875 87.75 C14.46013672 88.49121094 14.73277344 89.23242188 15.01367188 89.99609375 C15.27083984 90.71410156 15.52800781 91.43210937 15.79296875 92.171875 C16.0252417 92.8122168 16.25751465 93.45255859 16.49682617 94.11230469 C17 96 17 96 17 100 C12.60750699 100.02494208 8.21505283 100.04297329 3.82250977 100.05493164 C2.33194255 100.05992328 0.84138014 100.06671894 -0.64916992 100.07543945 C-8.49484991 100.12015168 -16.21373172 100.1148321 -24 99 C-25.19700067 95.02513407 -24.55266372 93.29672085 -22.8125 89.5 C-18.3232401 79.28349488 -15.12530415 69.66614557 -14.5 58.5 C-14.10819027 51.50339771 -14.10819027 51.50339771 -13.52734375 48.80078125 C-12.82784062 45.08564241 -12.56229115 41.35827948 -12.28125 37.59375 C-12.21844849 36.79142944 -12.15564697 35.98910889 -12.09094238 35.16247559 C-11.89110288 32.60852927 -11.69507774 30.05431418 -11.5 27.5 C-11.24301929 24.13513906 -10.98209538 20.77061814 -10.71875 17.40625 C-10.661427 16.63841187 -10.604104 15.87057373 -10.54504395 15.07946777 C-10.25045264 11.32044931 -9.84737336 7.67680029 -9 4 C-8.34 4 -7.68 4 -7 4 C-7 3.34 -7 2.68 -7 2 C-4.35261084 0.5393715 -3.10551666 0 0 0 Z " fill="#0E0E0E" transform="translate(451,159)"/>
<path d="" fill="#FFFFFF" transform="translate(0,0)"/>
<path d="" fill="#FFFFFF" transform="translate(0,0)"/>
<path d="" fill="#FFFFFF" transform="translate(0,0)"/>
<path d="" fill="#FFFFFF" transform="translate(0,0)"/>
<path d="" fill="#FFFFFF" transform="translate(0,0)"/>
<path d="" fill="#FFFFFF" transform="translate(0,0)"/>
<path d="" fill="#FFFFFF" transform="translate(0,0)"/>
<path d="" fill="#FFFFFF" transform="translate(0,0)"/>
<path d="" fill="#FFFFFF" transform="translate(0,0)"/>
<path d="" fill="#FFFFFF" transform="translate(0,0)"/>
<path d="" fill="#FFFFFF" transform="translate(0,0)"/>
<path d="" fill="#FFFFFF" transform="translate(0,0)"/>
<path d="" fill="#FFFFFF" transform="translate(0,0)"/>
<path d="" fill="#FFFFFF" transform="translate(0,0)"/>
<path d="" fill="#FFFFFF" transform="translate(0,0)"/>
<path d="" fill="#FFFFFF" transform="translate(0,0)"/>
<path d="" fill="#FFFFFF" transform="translate(0,0)"/>
<path d="" fill="#FFFFFF" transform="translate(0,0)"/>
<path d="" fill="#FFFFFF" transform="translate(0,0)"/>
<path d="" fill="#FFFFFF" transform="translate(0,0)"/>
<path d="" fill="#FFFFFF" transform="translate(0,0)"/>
<path d="" fill="#FFFFFF" transform="translate(0,0)"/>
<path d="" fill="#FFFFFF" transform="translate(0,0)"/>
<path d="" fill="#FFFFFF" transform="translate(0,0)"/>
<path d="" fill="#FFFFFF" transform="translate(0,0)"/>
<path d="" fill="#FFFFFF" transform="translate(0,0)"/>
<path d="" fill="#FFFFFF" transform="translate(0,0)"/>
<path d="" fill="#FFFFFF" transform="translate(0,0)"/>
<path d="" fill="#FFFFFF" transform="translate(0,0)"/>
<path d="" fill="#FFFFFF" transform="translate(0,0)"/>
<path d="" fill="#FFFFFF" transform="translate(0,0)"/>
<path d="" fill="#FFFFFF" transform="translate(0,0)"/>
<path d="" fill="#FFFFFF" transform="translate(0,0)"/>
<path d="" fill="#FFFFFF" transform="translate(0,0)"/>
<path d="" fill="#FFFFFF" transform="translate(0,0)"/>
<path d="" fill="#FFFFFF" transform="translate(0,0)"/>
<path d="" fill="#FFFFFF" transform="translate(0,0)"/>
<path d="" fill="#FFFFFF" transform="translate(0,0)"/>
<path d="" fill="#FFFFFF" transform="translate(0,0)"/>
<path d="" fill="#FFFFFF" transform="translate(0,0)"/>
<path d="" fill="#FFFFFF" transform="translate(0,0)"/>
<path d="" fill="#FFFFFF" transform="translate(0,0)"/>
<path d="" fill="#FFFFFF" transform="translate(0,0)"/>
<path d="" fill="#FFFFFF" transform="translate(0,0)"/>
<path d="" fill="#FFFFFF" transform="translate(0,0)"/>
<path d="" fill="#FFFFFF" transform="translate(0,0)"/>
<path d="" fill="#FFFFFF" transform="translate(0,0)"/>
<path d="" fill="#FFFFFF" transform="translate(0,0)"/>
<path d="" fill="#FFFFFF" transform="translate(0,0)"/>
<path d="" fill="#FFFFFF" transform="translate(0,0)"/>
<path d="" fill="#FFFFFF" transform="translate(0,0)"/>
<path d="" fill="#FFFFFF" transform="translate(0,0)"/>
<path d="" fill="#FFFFFF" transform="translate(0,0)"/>
<path d="" fill="#FFFFFF" transform="translate(0,0)"/>
<path d="" fill="#FFFFFF" transform="translate(0,0)"/>
<path d="" fill="#FFFFFF" transform="translate(0,0)"/>
<path d="" fill="#FFFFFF" transform="translate(0,0)"/>
<path d="" fill="#FFFFFF" transform="translate(0,0)"/>
<path d="" fill="#FFFFFF" transform="translate(0,0)"/>
<path d="" fill="#FFFFFF" transform="translate(0,0)"/>
<path d="" fill="#FFFFFF" transform="translate(0,0)"/>
<path d="" fill="#FFFFFF" transform="translate(0,0)"/>
</svg>
